<?xml version="1.0" standalone="no"?>
<!DOCTYPE svg PUBLIC "-//W3C//DTD SVG 20010904//EN"
 "http://www.w3.org/TR/2001/REC-SVG-20010904/DTD/svg10.dtd">
<svg version="1.0" xmlns="http://www.w3.org/2000/svg"
 width="450.000000pt" height="450.000000pt" viewBox="0 0 450.000000 450.000000"
 preserveAspectRatio="xMidYMid meet">
<metadata>
Created by potrace 1.14, written by Peter Selinger 2001-2017
</metadata>
<g transform="translate(0.000000,450.000000) scale(0.100000,-0.100000)"
fill="#000000" stroke="none">
<path d="M2070 4494 c-538 -49 -1036 -280 -1410 -654 -340 -341 -556 -770
-637 -1265 -24 -154 -24 -496 0 -650 81 -495 297 -924 637 -1265 341 -340 770
-556 1265 -637 154 -24 496 -24 650 0 495 81 924 297 1265 637 340 341 556
770 637 1265 24 154 24 496 0 650 -81 495 -297 924 -637 1265 -336 335 -755
549 -1235 631 -117 19 -426 33 -535 23z m-18 -678 c244 -62 456 -231 566 -451
44 -89 104 -295 86 -295 -3 0 -26 11 -52 24 -45 23 -49 28 -66 87 -41 149
-158 318 -282 410 -446 329 -1075 107 -1221 -431 -22 -79 -24 -301 -4 -370 39
-137 105 -258 196 -359 46 -51 49 -56 46 -105 -1 -28 -4 -53 -6 -55 -2 -2 -27
16 -55 40 -119 102 -228 281 -271 444 -31 114 -31 317 0 430 73 274 278 503
536 601 107 40 179 52 311 53 97 1 140 -4 216 -23z m793 9 c320 -68 574 -309
667 -630 32 -115 33 -335 0 -448 -47 -164 -119 -286 -238 -404 -41 -40 -78
-73 -84 -73 -6 0 -10 25 -10 56 0 54 2 58 58 119 97 106 159 227 189 368 23
110 14 289 -21 392 -72 211 -205 364 -401 460 -49 25 -121 52 -160 61 -95 23
-258 23 -358 0 l-77 -17 -45 28 c-24 15 -44 31 -45 34 0 6 158 55 200 62 64
11 261 5 325 -8z m-661 -226 c6 -6 -11 -28 -45 -58 -96 -86 -185 -230 -224
-365 -15 -52 -21 -58 -66 -81 l-49 -25 0 28 c0 38 34 155 65 227 37 83 103
180 173 253 l59 62 39 -16 c22 -9 43 -20 48 -25z m-549 -497 c39 -11 85 -25
103 -33 l34 -14 -47 -33 -46 -32 -62 17 c-91 26 -309 23 -397 -4 -36 -11 -73
-24 -83 -28 -16 -7 -18 -2 -15 46 l3 54 55 18 c127 40 323 44 455 9z m830 -2
c247 -63 456 -232 570 -463 66 -135 87 -225 88 -377 1 -264 -91 -475 -285
-655 l-63 -59 -6 60 -6 59 52 55 c209 221 270 536 159 816 -124 315 -427 509
-764 491 -288 -16 -536 -181 -660 -442 -55 -116 -73 -199 -73 -335 1 -210 70
-382 216 -537 l49 -52 -8 -57 -9 -56 -62 56 c-181 164 -283 396 -283 643 0
238 77 435 234 601 143 150 313 240 511 272 86 13 247 4 340 -20z m730 20 c39
-6 95 -18 126 -26 l57 -16 5 -51 c3 -29 4 -53 3 -55 -2 -1 -28 7 -58 17 -132
45 -327 52 -446 16 l-53 -16 -50 31 c-27 18 -49 33 -49 35 0 8 138 48 203 60
89 16 171 18 262 5z m-2285 -232 c0 -48 -3 -53 -66 -121 -79 -86 -154 -231
-180 -351 -25 -117 -16 -294 20 -401 71 -211 205 -364 401 -459 121 -59 204
-78 340 -78 103 0 143 7 281 47 19 6 22 2 26 -37 3 -23 2 -47 -3 -52 -18 -20
-151 -48 -256 -53 -134 -7 -235 7 -349 49 -214 77 -409 258 -499 463 -56 125
-70 198 -69 360 0 134 3 160 27 238 33 108 80 203 141 284 55 72 164 176 177
168 5 -4 9 -29 9 -57z m2806 -41 c93 -98 151 -195 195 -327 29 -84 33 -111 37
-235 3 -119 1 -154 -17 -230 -40 -171 -153 -357 -278 -462 l-50 -43 -7 56 -6
55 65 72 c130 142 197 317 198 517 1 137 -17 218 -74 337 -37 77 -143 223
-176 241 -12 7 -13 20 -8 65 9 70 13 69 121 -46z m-1662 12 c56 -61 119 -147
149 -205 15 -29 15 -35 -5 -98 -12 -36 -25 -66 -28 -66 -3 0 -13 21 -22 48
-10 26 -34 76 -55 111 -38 64 -150 193 -183 211 -16 8 -17 5 -9 -38 21 -113
69 -219 144 -321 l47 -64 -33 7 c-19 4 -51 9 -72 13 -31 5 -44 14 -64 47 -39
61 -80 156 -102 235 l-20 71 21 19 c23 22 147 90 164 91 7 0 37 -27 68 -61z
m568 10 c37 -22 70 -44 73 -49 10 -16 -33 -156 -71 -233 -54 -107 -68 -123
-111 -130 -21 -4 -54 -10 -73 -13 l-35 -7 32 36 c73 83 147 242 168 361 l7 40
-34 -26 c-96 -73 -222 -272 -250 -395 -10 -42 -18 -55 -40 -64 -15 -6 -39 -9
-52 -5 -24 6 -24 6 -11 63 39 165 119 306 243 431 50 50 53 50 154 -9z m-544
-492 c46 -13 88 -29 93 -34 6 -6 -7 -21 -34 -40 l-44 -30 -69 18 c-128 33
-347 21 -458 -26 l-31 -13 30 -12 c83 -32 156 -44 265 -45 63 0 130 3 148 7
l33 8 -18 -23 c-10 -13 -31 -39 -47 -58 l-29 -34 -106 2 c-70 1 -133 9 -185
22 -44 12 -81 23 -84 25 -9 9 -14 126 -8 169 7 44 9 46 54 61 87 28 147 35
277 31 101 -2 149 -9 213 -28z m802 8 c36 -10 71 -22 78 -27 14 -12 17 -184 4
-205 -13 -20 -157 -53 -264 -60 l-99 -6 -54 59 c-30 32 -53 59 -52 60 1 1 29
-3 62 -8 113 -19 360 13 398 51 6 6 -18 18 -64 33 -64 20 -95 23 -229 23 -148
0 -159 -2 -242 -31 -324 -116 -528 -402 -528 -740 0 -203 72 -382 216 -533
l85 -90 -23 -15 c-53 -34 -70 -30 -124 26 -155 160 -239 349 -251 565 -24 430
265 809 687 904 105 23 299 20 400 -6z m-1605 -315 c-98 -105 -160 -218 -191
-346 -8 -38 -18 -75 -20 -82 -6 -20 -84 36 -84 60 0 34 59 200 92 258 47 82
110 161 180 225 l63 57 6 -59 6 -58 -52 -55z m2021 66 c80 -82 99 -109 147
-208 65 -133 86 -208 94 -339 16 -260 -81 -506 -268 -685 -110 -104 -216 -165
-366 -210 -77 -24 -106 -27 -233 -28 -122 0 -158 3 -224 22 -43 12 -89 28
-102 35 l-24 13 45 32 46 32 57 -17 c43 -14 92 -18 197 -18 119 0 151 4 215
23 139 44 225 96 331 202 86 85 102 107 147 200 61 126 82 217 82 347 0 199
-73 384 -207 530 -52 56 -54 60 -52 111 1 29 7 52 13 52 6 0 52 -42 102 -94z
m-829 7 c151 -158 231 -341 240 -555 12 -260 -63 -468 -231 -646 -89 -94 -155
-143 -260 -193 -514 -247 -1121 56 -1236 614 -6 32 -10 61 -7 63 7 7 98 -37
102 -49 54 -189 105 -280 219 -392 118 -115 234 -179 389 -212 88 -18 273 -12
362 12 265 73 483 300 550 570 24 94 24 266 0 360 -37 149 -126 300 -232 394
-31 28 -55 52 -52 55 14 12 67 35 82 36 10 0 44 -26 74 -57z m-171 -55 c17
-18 36 -53 43 -78 25 -88 93 -203 163 -276 33 -35 40 -50 49 -108 6 -37 9 -70
6 -72 -8 -8 -126 106 -171 165 -58 76 -101 154 -130 237 -35 99 -42 144 -25
155 23 14 34 11 65 -23z m-98 -243 c-12 -22 -34 -60 -51 -85 -33 -50 -176
-200 -190 -200 -5 0 -7 26 -5 59 4 52 9 64 50 112 48 57 112 153 127 191 5 13
17 41 26 62 l17 39 23 -69 23 -69 -20 -40z m-180 -335 c142 -45 321 -44 467 1
37 11 70 18 73 15 3 -3 1 -27 -4 -53 l-9 -48 -65 -19 c-51 -15 -98 -19 -225
-20 -140 -1 -169 2 -232 22 -72 22 -73 23 -73 56 0 19 -3 41 -6 50 -8 20 -2
20 74 -4z m829 0 c145 -45 320 -45 468 1 37 11 68 19 69 17 1 -2 1 -24 -2 -50
l-4 -48 -66 -21 c-127 -40 -343 -37 -490 6 l-52 16 0 49 c0 28 3 50 8 50 4 0
35 -9 69 -20z"/>
</g>
</svg>
